# xmcd
#
# Track frame offsets:
# 150
# 10966
# 26656
# 43187
# 61001
# 76378
# 90362
# 99969
# 116599
# 128424
# 141843
#
# Disc length: 2186 seconds
#
# Revision: 1
# Processed by: cddbd v1.5.1PL0 Copyright (c) Steve Scherf et al.
# Submitted via: Axialis_AX_CDPlayer 2.6
#
DISCID=7e08880b
DTITLE=Waylon Jennings, Mel Tillis, Bobby Bare, Jerry Reed - Old Dogs, CD 1
DYEAR=1900
DGENRE=
TTITLE0=Old Dogs
TTITLE1=Come Back When You're Younger
TTITLE2=I Don't Do It No More
TTITLE3=She'd Rather Be Homeless
TTITLE4=Cut The Mustard
TTITLE5=Young Man's Job
TTITLE6=When I Was
TTITLE7=Couch Potato
TTITLE8=Hard When It Ain't
TTITLE9=Jittabug
TTITLE10=Me And Jimmie Rodgers
EXTD=
EXTT0=
EXTT1=
EXTT2=
EXTT3=
EXTT4=
EXTT5=
EXTT6=
EXTT7=
EXTT8=
EXTT9=
EXTT10=
PLAYORDER=
